<svg width="524" height="491" viewBox="0 0 524 491" fill="none" xmlns="http://www.w3.org/2000/svg">
<path fill-rule="evenodd" clip-rule="evenodd" d="M151.137 99.2099L150.245 99.0489C145.267 98.1229 141.449 96.9869 134.319 94.5139C133.501 94.2309 133.068 93.3379 133.351 92.5199C133.635 91.7029 134.528 91.2699 135.345 91.5529L137.122 92.1649C143.378 94.2989 146.888 95.2779 151.681 96.1229C167.81 98.9669 179.887 90.6869 180.875 74.8939C180.929 74.0299 181.673 73.3729 182.537 73.4269C183.401 73.4809 184.058 74.2249 184.003 75.0889C182.892 92.8509 169.019 102.363 151.137 99.2099Z" fill="white"/>
<path fill-rule="evenodd" clip-rule="evenodd" d="M191.439 116.123L192.339 118.123L194.391 118.712C194.502 118.744 194.566 118.86 194.534 118.97C194.524 119.005 194.506 119.036 194.481 119.061L192.922 120.613L193.009 122.846C193.014 122.961 192.924 123.058 192.809 123.063C192.77 123.064 192.731 123.055 192.697 123.035L190.933 122.03C190.877 121.999 190.811 121.994 190.752 122.018L188.865 122.767C188.757 122.81 188.636 122.758 188.593 122.65C188.579 122.614 188.575 122.574 188.582 122.536L188.979 120.337L187.652 118.583C187.582 118.491 187.6 118.36 187.692 118.291C187.72 118.269 187.754 118.255 187.789 118.25L189.903 117.953L191.072 116.098C191.134 116 191.263 115.971 191.36 116.032C191.395 116.054 191.423 116.086 191.439 116.123Z" fill="white"/>
<path fill-rule="evenodd" clip-rule="evenodd" d="M183.933 182.104C185.632 181.773 186.786 180.358 186.511 178.942C186.236 177.526 184.635 176.645 182.936 176.976C181.237 177.306 180.082 178.722 180.357 180.138C180.633 181.554 182.233 182.434 183.933 182.104Z" fill="#FFB61D"/>
<path fill-rule="evenodd" clip-rule="evenodd" d="M259.491 115.806C262.412 114.639 269.387 121.959 274.884 133.062C277.547 138.441 279.354 143.602 279.826 147.302C279.826 147.302 270.831 128.349 265.344 121.407C263.237 118.741 259.491 115.806 259.491 115.806Z" fill="#E7EAEE"/>
<path fill-rule="evenodd" clip-rule="evenodd" d="M260.859 134.346C257.324 126.498 255.763 119.306 256.946 114.951C254.808 115.631 252.134 116.852 249.48 118.375C245.952 120.398 243.153 122.661 243.087 123.152C242.405 128.285 245.023 138.272 249.372 147.175C254.024 156.698 259.558 162.815 263.843 162.815C264.253 162.815 265.427 162.573 266.603 162.162C268.277 161.577 269.845 160.725 271.129 159.61C271.768 159.055 272.429 158.428 273.12 157.728L273.952 156.868C274.442 156.349 274.949 155.79 275.739 154.905L276.84 153.676L276.887 153.624C271.376 151.61 265.611 144.511 261.299 135.305L260.859 134.346ZM240.188 122.766C240.642 119.342 253.463 111.94 259.314 111.461C259.559 111.308 259.821 111.175 260.1 111.063C265.167 109.039 272.888 117.712 279.081 129.915L279.505 130.762C282.301 136.408 284.208 141.856 284.728 145.93C285.349 150.8 283.939 154.028 280.242 154.194C280.143 154.577 279.892 154.898 279.56 155.092L279.503 155.121L279.359 155.265C279.214 155.414 279.043 155.599 278.78 155.892L276.962 157.92C276.303 158.647 275.835 159.14 275.202 159.782C274.462 160.532 273.748 161.21 273.048 161.818C270.216 164.278 266.03 165.74 263.843 165.74C262.683 165.74 261.51 165.471 260.334 164.956C259.079 166.265 255.215 168.814 248.176 173.153L242.84 176.418C232.306 182.831 225.277 186.934 224.398 186.934C222.407 186.934 220.482 186.291 218.659 185.097C218.642 185.108 218.625 185.12 218.607 185.131L217.863 185.61C215.271 187.29 211.127 190.084 207.284 192.676L207.283 192.677L207.043 192.838C207.541 196.39 208.672 199.952 210.442 203.526C216.724 201.583 221.7 200.927 223.136 202.388C224.636 203.914 225.973 206.678 227.24 210.732C227.481 211.503 227.051 212.323 226.28 212.564C225.509 212.805 224.689 212.376 224.448 211.605C223.352 208.099 222.234 205.739 221.176 204.573L221.133 204.527L221.095 204.529C220.895 204.488 220.594 204.468 220.212 204.475C219.369 204.491 218.217 204.64 216.841 204.913C214.01 205.473 210.433 206.517 206.88 207.827C198.758 210.823 192.49 214.536 191.201 217.349C190.824 218.172 190.873 219.377 191.323 221.222L191.407 221.555C191.475 221.816 191.546 222.075 191.638 222.403L192.166 224.273C192.188 224.354 192.21 224.438 192.237 224.543C192.44 225.325 191.971 226.124 191.189 226.327C190.407 226.53 189.609 226.06 189.406 225.278L189.146 224.332L188.713 222.806C188.664 222.625 188.619 222.458 188.575 222.289C187.89 219.646 187.78 217.794 188.542 216.131C189.833 213.311 193.873 210.389 199.499 207.732L198.275 204.572L197.973 203.773C197.51 202.526 196.97 200.837 196.64 199.603C192.245 201.972 189.184 202.368 186.118 200.698L185.879 200.564C185.272 200.213 184.688 199.808 184.099 199.315L166.956 209.727C167.115 210.071 167.276 210.417 167.439 210.766C168.208 212.415 166.851 213.583 164.77 214.492L164.546 214.588C162.757 215.328 161.143 215.498 160.183 214.444C156.196 210.068 151.976 199.602 154.246 197.208C154.682 196.748 155.833 196.064 158.01 194.922L158.183 194.832C158.227 194.801 158.274 194.773 158.322 194.746L174.347 186.064C174.384 186.044 174.421 186.026 174.459 186.01C173.469 184.373 172.384 182.551 171.185 180.518C171.002 180.223 170.935 179.879 170.981 179.547C171.01 179.336 171.085 179.131 171.206 178.947C171.272 178.846 171.352 178.752 171.444 178.668C174.738 175.544 179.228 172.286 184.859 168.778L185.542 168.355C187.979 166.852 192.922 164.033 197.122 161.638C200.379 159.78 203.189 158.177 204.035 157.642L204.24 157.506C204.546 157.282 204.91 157.195 205.26 157.232C204.981 154.695 204.957 152.337 205.223 150.337C205.468 148.497 211.599 143.733 221.066 137.35L222.422 136.441C230.357 131.155 237.201 127.162 240.101 126.313C240.023 125.003 240.049 123.81 240.188 122.766ZM240.422 129.279C237.58 130.317 230.465 134.541 222.702 139.775L221.458 140.619C217.964 143.003 214.737 145.327 212.299 147.221L211.621 147.753C210.534 148.615 209.653 149.358 209.015 149.954C208.695 150.252 208.442 150.508 208.264 150.712L208.14 150.858C208.112 150.887 208.105 150.876 208.115 150.784L208.123 150.722C208.12 150.746 208.117 150.766 208.115 150.784L208.077 151.098C206.67 163.442 215.596 183.601 224.14 184.003L224.341 184.007C224.357 184.008 224.377 184.009 224.398 184.009L224.341 184.007C224.179 183.999 224.243 183.953 224.268 183.939L224.531 183.803C224.726 183.701 224.956 183.577 225.222 183.431L226.439 182.75C226.904 182.486 227.424 182.189 227.991 181.861L229.443 181.018C232.214 179.4 235.672 177.34 239.199 175.206L242.554 173.166C246.633 170.674 250.319 168.376 253.089 166.591L254.516 165.664C255.4 165.084 256.147 164.582 256.744 164.167L256.96 164.015C257.277 163.792 257.541 163.599 257.751 163.439C253.983 160.674 250.274 155.568 246.98 148.94L246.743 148.459C243.569 141.961 241.274 134.925 240.422 129.279ZM205.663 160.068C204.608 160.732 201.494 162.51 198.03 164.488C193.925 166.832 189.328 169.457 187.077 170.845C181.761 174.122 177.474 177.161 174.291 180.021L175.345 181.8C179.958 189.539 182.629 193.612 184.778 195.913C184.064 194.22 183.694 192.071 183.694 189.376C183.694 189.252 183.71 189.132 183.739 189.017C183.597 188.456 183.797 187.841 184.291 187.478L185.287 186.737C185.885 186.286 186.868 185.534 187.986 184.68L187.987 184.679C190.433 182.81 193.524 180.448 194.626 179.658C198.095 177.173 200.652 175.779 202.98 175.295C204.092 175.064 204.956 175.722 205.206 176.741L205.247 176.926C205.306 177.229 205.316 177.528 205.315 178.179L205.314 178.385C205.302 180.819 205.543 182.224 206.574 183.846C207.28 184.957 208.316 185.97 209.76 186.877C209.911 186.972 210.039 187.09 210.142 187.224C212.472 185.659 214.654 184.204 216.264 183.16C213.727 180.705 211.442 177.149 209.515 172.79C207.721 168.73 206.39 164.255 205.663 160.068ZM281.826 146.301C281.354 142.6 279.547 137.44 276.884 132.06C271.387 120.958 264.106 112.613 261.185 113.78C258.362 114.908 259.099 122.939 263.159 132.314L263.526 133.144C268.176 143.47 274.824 151.107 279.793 151.273C281.582 151.332 282.281 149.871 281.826 146.301ZM175.97 188.483C178.508 192.585 180.362 195.296 181.977 197.181L165.725 207.052C164.06 203.402 162.571 200.005 161.126 196.554L175.741 188.636C175.824 188.592 175.9 188.54 175.97 188.483ZM207.636 204.449C206.059 201.187 204.97 197.916 204.371 194.639C202.271 196.052 200.444 197.275 199.269 198.039C199.47 199.048 200.218 201.443 200.862 203.146L202.063 206.236L202.177 206.538C203.357 206.04 204.59 205.554 205.867 205.083L206.712 204.775C207.022 204.664 207.33 204.555 207.636 204.449ZM207.584 188.945C206.086 187.906 204.937 186.725 204.105 185.415C202.758 183.295 202.404 181.485 202.389 178.75L202.388 178.505L202.181 178.582C200.698 179.158 198.928 180.199 196.705 181.77L196.33 182.036C195.271 182.795 192.259 185.097 189.828 186.954L189.827 186.955C188.476 187.987 187.305 188.882 186.75 189.298L186.62 189.394C186.623 194.261 187.837 196.493 190.096 197.577L190.277 197.66C190.815 197.898 191.2 198.018 192.297 198.318C192.319 198.324 192.341 198.331 192.362 198.338C193.501 197.955 194.807 197.315 196.366 196.401L196.947 196.052C198.235 195.249 201.692 192.918 205.494 190.354C206.183 189.889 206.883 189.417 207.584 188.945ZM158.541 197.953L158.765 198.487C160.319 202.171 161.933 205.818 163.765 209.797L164.478 211.34C164.244 211.497 163.937 211.664 163.599 211.811C163.114 212.023 162.622 212.172 162.252 212.222L162.134 212.233L161.956 212.02C160.571 210.315 158.964 207.419 157.803 204.538C157.184 203.004 156.744 201.597 156.545 200.516C156.464 200.076 156.427 199.706 156.43 199.425L156.439 199.24C156.442 199.195 156.442 199.172 156.431 199.168L156.474 199.139C156.722 198.968 157.353 198.599 158.292 198.089L158.541 197.953ZM178.718 194.731C178.152 194.154 177.226 194.145 176.65 194.711C175.635 195.706 174.214 196.633 171.731 198.011L169.204 199.413C168.537 199.793 167.99 200.121 167.495 200.443C167.082 200.711 166.712 200.97 166.38 201.227C165.74 201.72 165.623 202.639 166.117 203.278C166.611 203.918 167.529 204.035 168.168 203.541C168.432 203.337 168.737 203.124 169.087 202.897C169.41 202.687 169.765 202.47 170.177 202.23L170.982 201.769L173.549 200.347C176.014 198.963 177.5 197.974 178.698 196.799C179.275 196.234 179.284 195.308 178.718 194.731Z" fill="white"/>
<path fill-rule="evenodd" clip-rule="evenodd" d="M416.355 190.639C416.156 200.808 405.395 217.735 388.096 236.889C375.565 250.764 360.984 264.176 348.758 273.213L347.997 273.771L348.502 276.017C351.475 289.047 355.356 303.212 353.89 317.497C350.331 352.167 323.212 391.283 287.375 410.501C274.305 417.834 259.448 422.356 244.208 424.324L242.755 424.503C231.392 425.842 220.518 425.62 213.873 424.25C188.08 418.932 166.243 400.902 153.041 374.807C152.997 374.72 152.962 374.63 152.937 374.538C151.199 375.53 148.86 376.638 147.792 377L144.866 377.989C113.334 388.595 82.073 397.468 69.303 391.93C64.441 389.822 62.779 385.767 64.813 380.32C66.788 375.026 72.267 368.205 81.458 359.716L81.963 359.251C90.673 351.267 110.015 336.678 139.989 315.483L139.996 315.094C141.459 252.292 190.241 204.416 251.559 208.325C270.314 209.52 285.25 216.185 292.71 220.278L295.991 218.517C326.761 202.064 351.45 190.499 370.287 183.577C401.266 172.193 416.586 177.515 416.355 190.639ZM371.296 190.323C336.656 203.052 281.912 231.681 205.691 277.732L203.374 279.133C144.023 315.062 104.722 342.357 83.94 361.407L82.916 362.353L81.945 363.264C66.345 378.003 63.58 386.26 70.467 389.246C82.256 394.359 113.914 385.74 144.918 375.571L147.792 374.623C150.557 373.707 152.391 373.181 153.526 372.938C153.575 372.903 153.629 372.871 153.686 372.842C154.074 372.646 154.508 372.639 154.883 372.786C154.964 372.802 155.017 372.827 155.045 372.862C155.297 372.999 155.512 373.211 155.651 373.487C168.468 398.819 189.587 414.256 214.464 419.385C220.922 420.716 231.816 420.911 243.153 419.509L243.834 419.423C258.723 417.5 273.224 415.086 285.968 407.937C320.988 389.156 347.522 350.885 350.98 317.198C352.458 302.801 350.572 288.669 345.558 275.516C345.144 275.805 344.733 276.089 344.326 276.367C343.556 276.892 343.844 276.041 345.188 273.816C345.259 273.526 345.42 273.261 345.65 273.063L346.064 272.407C346.209 272.178 346.361 271.941 346.521 271.693L348.255 270.231C364.594 256.411 377.151 244.644 385.925 234.928L386.927 233.813C403.161 215.646 413.253 199.598 413.419 190.585C413.602 180.697 400.556 179.57 371.296 190.323ZM224.418 375.303C228.342 387.298 222.405 395.013 211.954 395.412C202.297 395.78 193.503 389.695 193.951 381.048C194.339 373.575 199.456 365.585 205.756 362.652C213.375 359.103 220.525 363.408 224.418 375.303ZM207.299 365.966C202.258 368.314 197.922 375.084 197.603 381.237C197.286 387.366 204.06 392.053 211.814 391.758C219.921 391.448 224.083 386.04 220.942 376.44C217.672 366.445 212.699 363.452 207.299 365.966ZM304.211 350.861C309.219 360.323 307.908 369.619 300.208 373.785L299.992 373.899L299.881 374.011C289.555 384.235 276.655 385.476 268.244 378.065L267.955 377.806C258.266 368.929 260.574 353.68 275.993 341.725C285.915 334.032 298.036 339.191 304.211 350.861ZM277.913 344.202C263.915 355.055 261.948 368.052 270.072 375.494C275.899 380.832 284.509 381.127 292.55 375.947L292.707 375.842L292.648 375.83C292.092 375.683 291.645 375.234 291.518 374.648L291.493 374.499C291.391 373.64 292.006 372.86 292.865 372.759C294.831 372.525 296.537 372.051 297.984 371.372L298.182 371.275L298.421 371.027C299.365 370.034 300.286 368.954 301.179 367.785L301.476 367.392C301.811 366.943 302.34 366.725 302.86 366.767L302.9 366.771L302.921 366.732C304.798 363.021 304.354 357.993 301.605 352.642L301.441 352.327C296.071 342.179 286.033 337.906 277.913 344.202ZM371.123 231.726C370.317 234.588 367.866 238.515 364.108 243.166C357.557 251.273 347.716 260.709 339.114 267.162L341.022 265.063C341.003 265.046 340.987 265.024 340.974 264.999L340.315 263.789C336.011 255.932 331.215 248.182 323.465 241.864C303.404 250.135 280.401 261.441 259.445 273.263L252.575 277.146C201.99 305.801 175.376 322.956 146.916 344.046C147.991 348.883 149.344 353.604 150.965 358.178C151.22 358.896 147.896 361.582 147.287 361.25C141.61 365.054 132.72 367.817 127.658 367.961C122.725 368.101 119.875 366.104 121.344 362.123C122.572 358.792 127.198 354.041 135.524 347.675L136.473 346.955L138.392 345.513C169.727 322.053 200.748 303.016 258.007 270.715L260.404 269.371C299.676 247.449 345.153 227.7 365.983 225.878C370.265 225.503 372.207 227.872 371.123 231.726ZM143.106 346.884L136.541 351.838C130.684 356.279 126.461 359.563 124.181 361.67L124.013 361.826C121.229 364.437 124.38 365.127 127.575 365.037C132.415 364.9 139.828 361.23 146.103 357.89C144.944 354.297 143.943 350.624 143.106 346.884ZM245.799 331.002C246.582 331.2 247.056 331.996 246.857 332.779C246.658 333.562 245.863 334.036 245.08 333.837C241.146 332.838 238.823 333.222 238.069 334.281C237.569 334.984 237.846 336.182 238.781 336.947C239.512 337.545 240.485 337.83 241.154 337.685C241.736 337.558 242.063 337.109 242.063 335.986C242.063 335.178 242.717 334.523 243.525 334.523C244.333 334.523 244.988 335.178 244.988 335.986C244.988 338.428 243.766 340.11 241.777 340.543C240.177 340.891 238.314 340.344 236.929 339.211C234.884 337.538 234.216 334.65 235.685 332.585C237.296 330.321 240.826 329.739 245.799 331.002ZM181.548 325.632C183.804 326.308 184.775 328.04 185.081 330.638L185.112 330.92L185.149 331.348C185.154 331.419 185.159 331.492 185.164 331.57L185.241 333.055L185.264 333.389C185.276 333.537 185.289 333.657 185.304 333.764L185.343 333.987L185.367 334.086L185.408 334.122C185.859 334.564 185.979 335.257 185.687 335.829L185.612 335.959C185.174 336.638 184.269 336.833 183.59 336.395C182.656 335.793 182.444 335.173 182.331 333.393L182.238 331.652C182.227 331.495 182.215 331.359 182.2 331.205C182.034 329.501 181.619 328.707 180.708 328.434C178.153 327.669 176.687 328.45 176.223 330.158C175.809 331.68 176.407 333.279 177.456 333.723L177.721 333.822C178.406 334.115 178.769 334.886 178.538 335.611C178.293 336.38 177.47 336.805 176.7 336.56C173.915 335.672 172.592 332.363 173.4 329.39C174.302 326.073 177.439 324.401 181.548 325.632ZM287.076 303.235C291.127 308.929 290.374 316.175 283.875 319.453C283.154 319.817 282.274 319.528 281.91 318.806C281.546 318.085 281.836 317.205 282.557 316.842C287.262 314.468 287.799 309.299 284.692 304.93C281.674 300.686 277.472 300.22 274.584 304.805C271.523 309.667 271.746 312.52 273.95 313.805C275.699 314.826 278.517 314.611 279.291 313.777L279.366 313.686C279.835 313.028 280.748 312.874 281.406 313.342C282.064 313.811 282.218 314.724 281.749 315.382C280.123 317.666 275.483 318.086 272.476 316.333C268.626 314.088 268.258 309.362 272.109 303.246C276.232 296.698 282.958 297.445 287.076 303.235ZM226.432 294.847C227.193 294.847 227.817 295.428 227.888 296.169L227.895 296.31C227.895 296.568 228.134 296.855 228.993 297.485L229.805 298.068C230.69 298.713 231.117 299.114 231.521 299.752C232.443 301.21 232.966 302.695 232.966 304.44C232.966 308.911 226.25 314.991 218.92 317.697C210.132 320.94 202.933 318.535 200.974 309.518C200.802 308.728 201.303 307.949 202.093 307.778C202.882 307.606 203.661 308.107 203.833 308.897C205.353 315.894 210.602 317.648 217.907 314.952C224.214 312.624 230.04 307.35 230.04 304.44C230.04 303.315 229.698 302.343 229.048 301.315L228.96 301.192C228.811 301.004 228.578 300.8 228.159 300.489L227.194 299.794C225.591 298.612 224.97 297.814 224.97 296.31C224.97 295.502 225.624 294.847 226.432 294.847ZM233.298 213.775L232.375 213.879C182.462 219.882 145.019 259.803 142.977 313.374L148.332 309.606C163.704 298.816 181.546 286.491 201.859 272.63L205.817 270.238C217.634 263.109 228.933 256.4 239.718 250.106C239.521 249.761 239.466 249.337 239.6 248.93C240.354 246.628 241.051 245.081 242.328 243.532C246.324 238.684 251.799 236.316 255.678 239.36C256.06 239.659 256.253 240.111 256.237 240.562L259.683 238.596C270.534 232.419 280.802 226.714 290.492 221.473L286.707 220.397C281.094 218.817 274.111 216.943 267.155 215.501C267.219 220.129 263.754 223.825 257.998 226.368C253.104 228.529 246.728 229.692 242.194 229.421C233.712 228.916 228.938 221.476 233.298 213.775ZM320.854 277.297C324.433 287.076 321.48 295.969 312.542 295.911C299.808 295.828 287.373 284.709 289.384 274.748C290.28 270.305 293.621 266.374 299.43 264.412C308.707 261.279 317.21 267.342 320.854 277.297ZM300.366 267.184C295.565 268.805 292.945 271.888 292.251 275.327C290.655 283.233 301.482 292.913 312.561 292.986C318.908 293.027 321.09 286.455 318.106 278.302C314.949 269.676 307.89 264.643 300.366 267.184ZM192.811 232.557L192.915 232.708L193.619 233.827C193.964 234.396 194.273 234.953 194.567 235.555C197.806 242.178 197.722 250.861 192.24 262.914C189.757 268.374 183.43 275.712 177.904 280.091C170.85 285.683 165.582 286.953 159.295 286.262L157.429 286.043L157.202 286.022C157.077 286.013 156.997 286.013 156.91 286.015L156.782 286.021C156.685 286.025 156.651 286.02 156.645 286.008V285.998L156.598 286.074C156.174 286.682 155.35 286.882 154.688 286.514C153.982 286.121 153.728 285.231 154.121 284.525C154.646 283.579 155.525 283.152 156.643 283.099C156.94 283.085 157.253 283.095 157.626 283.126L158.062 283.168L159.269 283.315C164.996 284.009 169.552 282.978 176.087 277.799C181.277 273.685 187.309 266.69 189.577 261.703C194.708 250.424 194.783 242.654 191.939 236.84C191.749 236.453 191.552 236.085 191.338 235.715L191.032 235.204L190.418 234.234C189.989 233.549 190.196 232.647 190.88 232.218C191.522 231.815 192.355 231.972 192.811 232.557ZM366.238 228.792C356.887 229.61 342.229 234.229 325.33 241.1L325.824 241.537C330.527 245.756 340.016 255.762 342.986 262.899L345.944 259.618C353.244 251.499 358.54 245.402 361.832 241.327L362.499 240.492C365.646 236.498 367.68 233.161 368.307 230.934L368.396 230.596C368.786 228.989 368.334 228.608 366.238 228.792ZM226.182 233.543C229.822 235.303 231.3 239.221 228.905 242.774C228.453 243.444 227.544 243.621 226.874 243.169C226.204 242.718 226.027 241.809 226.479 241.139C227.796 239.185 227.053 237.214 224.908 236.177C222.65 235.085 220.175 235.713 218.898 238.097C217.721 240.293 217.64 243.267 218.58 245.215C219.405 246.925 220.605 247.253 222.437 245.874C223.083 245.388 224 245.517 224.485 246.163C224.971 246.808 224.842 247.725 224.197 248.211C220.858 250.724 217.554 249.822 215.945 246.486C214.596 243.69 214.704 239.731 216.319 236.715C218.38 232.869 222.581 231.803 226.182 233.543ZM244.585 245.393C243.903 246.22 243.416 247.093 242.964 248.213C246.733 246.024 250.438 243.884 254.08 241.796L253.974 241.734L253.872 241.661C251.639 239.908 247.702 241.611 244.585 245.393ZM238.347 213.328L237.068 213.418L236.982 213.526C231.926 219.916 233.873 225.102 240.779 225.839C245.738 226.368 258.903 222.688 260.448 221.397C261.952 220.139 263.854 217.247 264.147 214.903C259.679 214.063 255.308 213.446 251.409 213.246C247.425 213.043 243.496 213.047 239.633 213.252L238.347 213.328Z" fill="white"/>
<path fill-rule="evenodd" clip-rule="evenodd" d="M423.899 134.011C414.3 133.52 406.807 140.98 406.729 150.74C406.664 158.918 411.355 165.861 418.077 167.247C419.848 167.612 424.956 167.612 429.387 165.126L429.754 164.924C435.341 161.761 439.141 155.743 439.649 150.792C440.55 142.015 433.498 134.502 423.899 134.011ZM408.819 150.757C408.819 150.694 408.82 150.631 408.821 150.568C408.881 150.549 408.94 150.524 408.997 150.493C416.523 146.439 421.169 143.349 423.024 141.118C424.249 139.645 424.846 137.984 424.798 136.179C426.062 136.319 427.266 136.596 428.396 136.993C428.389 137.047 428.386 137.103 428.388 137.159C428.48 139.757 427.788 141.833 426.315 143.45C424.624 145.308 422.574 147.077 420.243 148.744C417.752 150.527 415.077 152.101 412.401 153.449C411.777 153.764 411.183 154.05 410.626 154.309L409.818 154.675C409.702 154.726 409.595 154.773 409.496 154.816L409.256 154.917C408.96 153.6 408.807 152.204 408.819 150.757ZM409.843 156.937C410.505 158.772 411.463 160.398 412.65 161.722L413.274 161.363C423.096 155.677 429.193 151.21 431.5 148.059C433.834 144.873 434.665 142.427 434.143 140.763C434.131 140.724 434.121 140.685 434.114 140.645C433.086 139.566 431.862 138.639 430.483 137.906C430.424 140.668 429.551 143 427.861 144.857C426.062 146.833 423.902 148.695 421.459 150.444C418.873 152.295 416.107 153.922 413.341 155.315C412.535 155.722 411.775 156.084 411.077 156.401L410.262 156.762L409.843 156.937ZM417.665 164.99C416.431 164.621 415.282 164.016 414.247 163.214C424.358 157.367 430.649 152.759 433.186 149.294C434.76 147.144 435.767 145.211 436.176 143.486C436.684 144.436 437.069 145.449 437.316 146.506C437.263 146.614 437.228 146.733 437.215 146.859C436.96 149.302 435.701 151.726 433.399 154.141C431.19 156.458 426.422 159.801 419.137 164.124L417.665 164.99ZM421.197 165.328C423.44 165.186 426.183 164.528 428.399 163.285C432.522 161.074 435.832 156.911 437.082 152.899C436.478 153.805 435.754 154.699 434.912 155.583C432.643 157.962 428.083 161.197 421.197 165.328ZM409.426 147.881L409.055 148.083C410.241 141.179 415.757 136.224 422.703 136.081C422.777 137.438 422.355 138.655 421.418 139.782C419.902 141.605 415.881 144.333 409.426 147.881Z" fill="white"/>
<path fill-rule="evenodd" clip-rule="evenodd" d="M499.325 113.99C499.521 114.012 499.656 114.189 499.634 114.382C499.633 114.667 499.45 114.822 499.203 114.922C498.981 115.011 498.626 114.977 498.419 115.005C496.156 115.179 494.378 113.515 493.596 111.369C492.844 109.307 493.044 106.842 494.408 105.322C494.565 105.143 494.837 105.125 495.017 105.282C495.196 105.439 496.214 105.712 496.057 105.891C494.932 107.204 494.17 108.001 495.232 111.118C496.293 114.235 499.18 113.973 499.325 113.99Z" fill="#E7EAEE"/>
<path fill-rule="evenodd" clip-rule="evenodd" d="M139.07 136.308C138.475 135.899 137.662 136.05 137.254 136.645C136.846 137.24 136.997 138.053 137.591 138.461C138.245 138.909 138.822 139.323 139.331 139.708C138.783 140.145 138.235 140.645 137.665 141.214L136.51 142.387C136.002 142.9 136.006 143.727 136.518 144.234C137.03 144.742 137.857 144.738 138.365 144.226L139.751 142.825C140.315 142.276 140.843 141.817 141.375 141.435C142.556 142.606 142.915 143.464 142.935 144.318V144.536L142.941 144.67C143.008 145.329 143.564 145.842 144.241 145.842C144.962 145.842 145.547 145.258 145.547 144.536L145.546 144.28C145.522 142.949 145.053 141.684 143.789 140.238C144.624 139.989 145.564 139.85 146.705 139.79C147.425 139.753 147.979 139.138 147.941 138.418C147.904 137.698 147.289 137.144 146.569 137.182C144.588 137.285 143.049 137.616 141.678 138.243C141.105 137.775 140.456 137.284 139.724 136.764L139.07 136.308Z" fill="white"/>
<path fill-rule="evenodd" clip-rule="evenodd" d="M334.757 422.477L335.663 422.481C340.727 422.528 344.683 422.984 352.135 424.18C352.99 424.318 353.571 425.122 353.434 425.976C353.297 426.831 352.493 427.412 351.638 427.275L349.196 426.891C343.03 425.944 339.477 425.611 334.757 425.611C318.379 425.611 307.924 435.863 309.693 451.588C309.79 452.448 309.171 453.223 308.311 453.32C307.451 453.417 306.675 452.798 306.578 451.938C304.588 434.253 316.599 422.477 334.757 422.477ZM347.441 428.804L347.289 428.67C347.141 428.543 346.914 428.561 346.79 428.709C346.66 428.858 346.68 429.081 346.827 429.208L346.985 429.342C347.133 429.469 347.355 429.452 347.484 429.303C347.609 429.155 347.594 428.931 347.441 428.804ZM319.042 432.082C318.48 431.63 317.658 431.72 317.206 432.282C315.382 434.552 314.052 436.764 313.223 438.923C312.416 441.023 312.141 444.552 312.35 449.598L312.401 450.663C312.439 451.383 313.053 451.937 313.774 451.899C314.494 451.861 315.047 451.246 315.009 450.526C314.732 445.255 314.968 441.664 315.661 439.86C316.387 437.971 317.578 435.988 319.242 433.918C319.694 433.356 319.605 432.534 319.042 432.082ZM333.295 427.761C333.936 427.429 334.724 427.68 335.056 428.32C335.387 428.961 335.137 429.749 334.497 430.08C331.844 431.455 329.818 433.758 328.406 437.042C326.891 440.567 325.651 443.712 324.687 446.476C324.449 447.157 323.704 447.517 323.023 447.279C322.342 447.041 321.983 446.297 322.221 445.616C323.207 442.789 324.469 439.588 326.007 436.011C327.648 432.193 330.082 429.426 333.295 427.761ZM340.888 427.693C340.412 427.15 339.587 427.096 339.045 427.571C336.865 429.481 335.19 431.218 334.018 432.793C332.854 434.357 331.491 436.696 329.914 439.826C329.589 440.47 329.848 441.255 330.492 441.58C331.136 441.905 331.922 441.646 332.246 441.001C333.762 437.995 335.056 435.774 336.113 434.352C337.162 432.943 338.714 431.333 340.766 429.535C341.309 429.06 341.363 428.235 340.888 427.693ZM336.119 442.441C335.577 442.916 334.752 442.862 334.277 442.319C333.801 441.777 333.856 440.952 334.398 440.476C336.45 438.679 338.002 437.069 339.051 435.659C340.108 434.238 341.403 432.017 342.918 429.01C343.243 428.366 344.028 428.107 344.672 428.432C345.316 428.757 345.575 429.542 345.25 430.186C343.673 433.315 342.31 435.655 341.146 437.219C339.974 438.794 338.299 440.531 336.119 442.441ZM326.232 428.826C325.638 428.416 324.825 428.565 324.415 429.159C321.495 433.387 319.631 436.546 318.806 438.692C317.979 440.846 317.408 443.749 317.076 447.418C317.011 448.136 317.541 448.771 318.259 448.836C318.977 448.901 319.612 448.371 319.677 447.653C319.989 444.204 320.517 441.524 321.245 439.629C321.923 437.862 323.505 435.137 325.978 431.499L326.564 430.643C326.974 430.049 326.825 429.236 326.232 428.826Z" fill="white"/>
<path fill-rule="evenodd" clip-rule="evenodd" d="M301.439 421.123L302.339 423.123L304.391 423.712C304.502 423.744 304.566 423.86 304.534 423.97C304.524 424.005 304.506 424.036 304.481 424.061L302.922 425.613L303.009 427.846C303.014 427.961 302.924 428.058 302.809 428.063C302.77 428.064 302.731 428.055 302.697 428.035L300.933 427.03C300.877 426.999 300.811 426.994 300.752 427.018L298.865 427.767C298.757 427.81 298.636 427.758 298.593 427.65C298.579 427.614 298.575 427.574 298.582 427.536L298.979 425.337L297.652 423.583C297.582 423.491 297.6 423.36 297.692 423.291C297.72 423.269 297.754 423.255 297.789 423.25L299.903 422.953L301.072 421.098C301.134 421 301.263 420.971 301.36 421.032C301.395 421.054 301.423 421.086 301.439 421.123Z" fill="white"/>
<path fill-rule="evenodd" clip-rule="evenodd" d="M374.11 141.139C374.59 141.565 375.19 142.333 375.72 143.165L376.402 142.862L377.208 142.517C377.37 142.443 377.474 142.385 377.506 142.338C377.599 142.165 377.813 142.099 377.988 142.191C378.158 142.283 378.227 142.497 378.134 142.67C378.07 142.834 377.618 143.348 376.777 143.852C376.625 143.943 376.456 144.028 376.276 144.11C376.586 144.69 376.829 145.251 376.944 145.7C377.116 146.362 376.978 146.832 376.751 146.997C376.528 147.16 375.969 147.19 375.118 146.484C374.961 146.365 374.937 146.142 375.056 145.987C375.174 145.833 375.396 145.804 375.553 145.923C375.715 146.043 375.878 146.11 376.01 146.159L375.946 145.906C375.921 145.815 375.89 145.721 375.846 145.628C375.694 145.295 375.5 144.914 375.282 144.523C374.616 144.774 373.859 145.002 373.041 145.112C372.643 145.165 372.236 145.176 371.814 145.172C371.571 145.188 371.361 145.004 371.345 144.761C371.329 144.518 371.513 144.308 371.756 144.292C372.74 144.197 373.65 143.948 374.453 143.669L374.716 143.574C374.282 142.895 373.816 142.278 373.417 141.93C373.201 141.738 373.179 141.406 373.368 141.187C373.562 140.969 373.894 140.947 374.11 141.139Z" fill="white"/>
<path fill-rule="evenodd" clip-rule="evenodd" d="M82.736 328.203C82.506 326.829 82.6631 325.29 83.3541 323.647C83.6671 322.903 84.491 322.297 85.522 321.89C86.727 321.414 88.202 321.178 89.131 321.117C91.396 320.971 92.765 321.919 93.463 323.391C94.111 323.882 94.356 324.666 94.308 325.595C94.288 326.036 94.87 327.634 94.89 327.939C95.345 333.857 91.513 335.395 88.01 334.236C86.679 334.912 85.396 335.024 84.43 334.306C83.563 333.665 82.898 332.312 82.745 329.927C82.705 329.312 82.702 328.738 82.736 328.203ZM88.9491 324.306C86.9391 324.701 86.855 330.503 88.61 331.74C88.85 331.907 89.083 332.055 89.31 332.176C90.158 331.411 90.791 330.793 91.15 329.528C91.509 328.262 90.1961 325.21 88.9491 324.306Z" fill="#FFB61D"/>
<path fill-rule="evenodd" clip-rule="evenodd" d="M219.898 473.116C219.303 472.708 218.49 472.859 218.082 473.454C217.674 474.048 217.825 474.861 218.419 475.269C219.072 475.718 219.65 476.132 220.159 476.517C219.61 476.953 219.062 477.454 218.493 478.023L217.338 479.196C216.83 479.708 216.834 480.535 217.346 481.043C217.858 481.551 218.685 481.547 219.193 481.035L220.579 479.634C221.143 479.085 221.671 478.626 222.203 478.244C223.384 479.414 223.743 480.273 223.762 481.126V481.345L223.769 481.479C223.836 482.137 224.392 482.651 225.068 482.651C225.79 482.651 226.374 482.066 226.374 481.345V481.088C226.35 479.758 225.88 478.492 224.616 477.046C225.451 476.798 226.392 476.658 227.533 476.599C228.253 476.561 228.807 475.947 228.769 475.227C228.731 474.506 228.117 473.953 227.397 473.991C225.416 474.094 223.877 474.424 222.505 475.051C221.933 474.583 221.284 474.092 220.551 473.572L219.898 473.116Z" fill="white"/>
<path fill-rule="evenodd" clip-rule="evenodd" d="M219.898 473.116C219.303 472.708 218.49 472.859 218.082 473.454C217.674 474.048 217.825 474.861 218.419 475.269C219.072 475.718 219.65 476.132 220.159 476.517C219.61 476.953 219.062 477.454 218.493 478.023L217.338 479.196C216.83 479.708 216.834 480.535 217.346 481.043C217.858 481.551 218.685 481.547 219.193 481.035L220.579 479.634C221.143 479.085 221.671 478.626 222.203 478.244C223.384 479.414 223.743 480.273 223.762 481.126V481.345L223.769 481.479C223.836 482.137 224.392 482.651 225.068 482.651C225.79 482.651 226.374 482.066 226.374 481.345V481.088C226.35 479.758 225.88 478.492 224.616 477.046C225.451 476.798 226.392 476.658 227.533 476.599C228.253 476.561 228.807 475.947 228.769 475.227C228.731 474.506 228.117 473.953 227.397 473.991C225.416 474.094 223.877 474.424 222.505 475.051C221.933 474.583 221.284 474.092 220.551 473.572L219.898 473.116Z" fill="white"/>
<path fill-rule="evenodd" clip-rule="evenodd" d="M264.532 437.338L265.431 439.338L267.483 439.927C267.594 439.959 267.658 440.074 267.626 440.185C267.616 440.219 267.598 440.251 267.573 440.276L266.014 441.827L266.101 444.06C266.106 444.176 266.016 444.273 265.901 444.277C265.862 444.279 265.823 444.27 265.789 444.25L264.025 443.245C263.969 443.214 263.903 443.209 263.844 443.233L261.957 443.982C261.85 444.025 261.728 443.972 261.685 443.865C261.671 443.829 261.667 443.789 261.674 443.751L262.071 441.552L260.744 439.798C260.674 439.706 260.692 439.575 260.784 439.505C260.813 439.484 260.846 439.47 260.881 439.465L262.995 439.168L264.164 437.312C264.226 437.215 264.355 437.186 264.452 437.247C264.487 437.269 264.515 437.301 264.532 437.338Z" fill="white"/>
<path fill-rule="evenodd" clip-rule="evenodd" d="M151.311 423.595L152.841 425.166L154.97 425.018C155.085 425.01 155.185 425.097 155.193 425.212C155.196 425.247 155.189 425.283 155.174 425.315L154.24 427.306L155.086 429.375C155.13 429.482 155.078 429.604 154.972 429.647C154.935 429.662 154.896 429.667 154.857 429.66L152.856 429.319C152.793 429.309 152.729 429.327 152.682 429.369L151.164 430.719C151.078 430.796 150.946 430.788 150.869 430.702C150.844 430.673 150.826 430.637 150.82 430.598L150.441 428.396L148.594 427.202C148.497 427.139 148.469 427.01 148.531 426.913C148.551 426.883 148.577 426.859 148.609 426.842L150.493 425.84L150.958 423.696C150.982 423.584 151.093 423.512 151.206 423.536C151.246 423.545 151.283 423.565 151.311 423.595Z" fill="white"/>
<path fill-rule="evenodd" clip-rule="evenodd" d="M127.424 280.381L128.324 282.381L130.376 282.97C130.487 283.002 130.551 283.117 130.519 283.228C130.509 283.262 130.491 283.294 130.466 283.319L128.907 284.87L128.994 287.103C128.999 287.219 128.909 287.316 128.794 287.32C128.755 287.322 128.716 287.312 128.682 287.293L126.918 286.288C126.862 286.257 126.796 286.252 126.737 286.276L124.85 287.025C124.742 287.068 124.621 287.015 124.578 286.908C124.564 286.872 124.56 286.832 124.567 286.794L124.964 284.595L123.637 282.841C123.567 282.749 123.585 282.618 123.677 282.548C123.706 282.527 123.739 282.513 123.774 282.508L125.888 282.211L127.057 280.355C127.119 280.258 127.248 280.228 127.345 280.29C127.38 280.312 127.408 280.344 127.424 280.381Z" fill="white"/>
<path fill-rule="evenodd" clip-rule="evenodd" d="M127.215 282.373L127.598 283.222L128.469 283.472C128.516 283.486 128.543 283.535 128.53 283.582C128.526 283.597 128.518 283.61 128.507 283.62L127.845 284.28L127.882 285.228C127.884 285.277 127.846 285.318 127.797 285.32C127.78 285.321 127.764 285.317 127.75 285.309L127 284.882C126.977 284.868 126.948 284.866 126.923 284.876L126.122 285.195C126.076 285.213 126.024 285.191 126.006 285.145C126 285.13 125.999 285.113 126.002 285.097L126.17 284.162L125.606 283.418C125.577 283.379 125.584 283.323 125.624 283.293C125.636 283.284 125.65 283.278 125.665 283.276L126.563 283.15L127.059 282.362C127.085 282.32 127.14 282.308 127.182 282.334C127.196 282.343 127.208 282.357 127.215 282.373Z" fill="#E7EAEE"/>
<path fill-rule="evenodd" clip-rule="evenodd" d="M20.4391 368.123L21.3391 370.123L23.3911 370.712C23.5021 370.744 23.5661 370.86 23.5341 370.97C23.5241 371.005 23.5061 371.036 23.4811 371.061L21.9221 372.613L22.0091 374.846C22.0141 374.961 21.9241 375.058 21.8091 375.063C21.7701 375.064 21.7311 375.055 21.6971 375.035L19.9331 374.03C19.8771 373.999 19.8111 373.994 19.7521 374.018L17.8651 374.767C17.7571 374.81 17.6361 374.758 17.5931 374.65C17.5791 374.614 17.5751 374.574 17.5821 374.536L17.9791 372.337L16.6521 370.583C16.5821 370.491 16.6001 370.36 16.6921 370.291C16.7201 370.269 16.7541 370.255 16.7891 370.25L18.9031 369.953L20.0721 368.098C20.1341 368 20.2631 367.971 20.3601 368.032C20.3951 368.054 20.4231 368.086 20.4391 368.123Z" fill="white"/>
<path fill-rule="evenodd" clip-rule="evenodd" d="M110.861 188.546L111.515 189.002C112.248 189.522 114.987 192.104 115.56 192.572C116.929 191.943 118.469 191.613 120.45 191.51C121.17 191.472 121.784 192.026 121.822 192.746C121.859 193.466 121.306 194.081 120.586 194.118C119.444 194.178 118.503 194.317 117.668 194.566C118.933 196.013 119.403 197.278 119.427 198.607V198.864C119.427 199.586 118.843 200.17 118.121 200.17C117.445 200.17 116.889 199.656 116.822 198.998L116.815 198.864V198.645C116.796 197.792 116.436 196.934 115.256 195.763C114.724 196.145 114.195 196.604 113.631 197.153L112.246 198.554C111.738 199.066 110.911 199.07 110.399 198.562C109.887 198.054 109.883 197.227 110.391 196.715L111.546 195.542C112.115 194.973 112.663 194.473 113.212 194.036C112.248 191.836 108.637 189.478 109.045 188.883C109.453 188.289 110.266 188.138 110.861 188.546Z" fill="white"/>
<path fill-rule="evenodd" clip-rule="evenodd" d="M362.836 339.161L364.615 340.442L366.686 339.927C366.798 339.899 366.912 339.967 366.94 340.079C366.948 340.113 366.948 340.15 366.939 340.184L366.365 342.307L367.557 344.197C367.618 344.295 367.589 344.424 367.491 344.486C367.458 344.506 367.42 344.518 367.381 344.518L365.35 344.53C365.287 344.53 365.227 344.559 365.188 344.609L363.928 346.202C363.857 346.292 363.725 346.308 363.635 346.236C363.604 346.212 363.581 346.18 363.568 346.143L362.812 344.04L360.786 343.185C360.679 343.14 360.629 343.018 360.674 342.911C360.688 342.878 360.71 342.85 360.738 342.828L362.42 341.513L362.505 339.322C362.509 339.207 362.607 339.117 362.722 339.121C362.763 339.123 362.803 339.137 362.836 339.161Z" fill="white"/>
<path fill-rule="evenodd" clip-rule="evenodd" d="M383.275 257.31L383.814 259.436L385.732 260.372C385.836 260.422 385.879 260.548 385.828 260.651C385.812 260.683 385.789 260.711 385.76 260.731L383.955 261.989L383.654 264.203C383.638 264.317 383.533 264.397 383.418 264.382C383.38 264.376 383.343 264.36 383.313 264.335L381.75 263.039C381.701 262.999 381.636 262.983 381.574 262.996L379.585 263.406C379.472 263.429 379.362 263.357 379.339 263.244C379.331 263.205 379.334 263.166 379.347 263.129L380.12 261.032L379.117 259.075C379.065 258.972 379.105 258.846 379.208 258.794C379.24 258.777 379.275 258.77 379.311 258.771L381.444 258.845L382.918 257.221C382.995 257.135 383.127 257.129 383.213 257.207C383.243 257.234 383.265 257.27 383.275 257.31Z" fill="white"/>
<path fill-rule="evenodd" clip-rule="evenodd" d="M336.73 171.755L337.269 173.881L339.187 174.817C339.291 174.868 339.334 174.993 339.283 175.097C339.268 175.129 339.244 175.156 339.215 175.176L337.411 176.434L337.109 178.648C337.093 178.762 336.988 178.843 336.873 178.827C336.835 178.822 336.798 178.806 336.768 178.781L335.205 177.485C335.156 177.444 335.092 177.428 335.029 177.441L333.041 177.851C332.928 177.875 332.817 177.802 332.794 177.689C332.786 177.651 332.789 177.611 332.802 177.574L333.575 175.478L332.573 173.52C332.52 173.418 332.561 173.292 332.663 173.239C332.695 173.223 332.73 173.215 332.766 173.216L334.899 173.29L336.373 171.666C336.45 171.581 336.582 171.574 336.668 171.652C336.698 171.679 336.72 171.715 336.73 171.755Z" fill="white"/>
<path fill-rule="evenodd" clip-rule="evenodd" d="M474.236 192.587L475.03 192.516C475.927 192.443 476.74 192.403 477.48 192.393C478.125 191.032 479.092 189.789 480.543 188.437C481.07 187.945 481.897 187.974 482.389 188.501C482.88 189.029 482.851 189.855 482.324 190.347C481.488 191.126 480.856 191.838 480.377 192.566C482.276 192.861 483.448 193.528 484.322 194.531L484.487 194.728C484.951 195.28 484.879 196.104 484.326 196.568C483.808 197.002 483.052 196.966 482.577 196.505L482.486 196.407L482.345 196.239C481.782 195.598 480.955 195.171 479.298 195.034C479.136 195.668 479.026 196.359 478.947 197.142L478.786 199.106C478.727 199.825 478.095 200.359 477.377 200.3C476.658 200.24 476.124 199.609 476.183 198.89L476.314 197.249C476.384 196.447 476.483 195.711 476.622 195.024C475.986 195.057 475.277 195.111 474.488 195.187C473.77 195.256 473.131 194.731 473.062 194.013C472.993 193.295 473.518 192.657 474.236 192.587Z" fill="white"/>
<path fill-rule="evenodd" clip-rule="evenodd" d="M368.778 282.737C368.542 283.334 368.025 284.161 367.424 284.943L367.942 285.48L368.542 286.119L368.676 286.247C368.734 286.299 368.78 286.33 368.813 286.339C369.007 286.367 369.142 286.546 369.116 286.741C369.088 286.932 368.91 287.07 368.716 287.042C368.54 287.038 367.902 286.789 367.141 286.171C367.003 286.059 366.866 285.93 366.726 285.788C366.287 286.278 365.844 286.699 365.461 286.96C364.898 287.349 364.409 287.38 364.177 287.222C363.947 287.069 363.727 286.554 364.1 285.513C364.159 285.324 364.36 285.225 364.546 285.284C364.731 285.343 364.834 285.541 364.776 285.729C364.719 285.922 364.711 286.099 364.71 286.24L364.927 286.093C365.003 286.038 365.081 285.976 365.153 285.904C365.415 285.647 365.706 285.334 365.999 284.996C365.535 284.456 365.062 283.823 364.679 283.092C364.492 282.735 364.344 282.357 364.202 281.959C364.105 281.737 364.206 281.476 364.429 281.377C364.651 281.279 364.912 281.381 365.01 281.603C365.436 282.496 365.981 283.265 366.518 283.924L366.697 284.139C367.187 283.499 367.607 282.851 367.798 282.357C367.904 282.088 368.209 281.954 368.479 282.057C368.751 282.164 368.885 282.468 368.778 282.737Z" fill="#E7EAEE"/>
<path fill-rule="evenodd" clip-rule="evenodd" d="M356.027 16.577C356.823 16.438 357.581 16.971 357.719 17.767C357.858 18.562 357.325 19.32 356.529 19.459C352.744 20.118 348.189 22.38 344.253 26.025C339.143 30.756 335.373 37.435 333.512 46.153C332.013 53.176 333.391 62.424 337.31 70.139C341.769 78.916 348.936 84.884 358.133 86.564C367.575 88.289 375.563 87.218 384.485 84.046L385.306 83.748C385.567 83.649 386.032 83.469 386.616 83.244H386.617C388.765 82.415 392.519 80.967 393.597 80.641C396.481 79.768 398.449 79.841 399.875 81.362C400.428 81.951 400.399 82.876 399.81 83.429C399.257 83.948 398.409 83.954 397.85 83.467L397.742 83.364C397.321 82.915 396.451 82.863 394.7 83.365L394.443 83.441C393.493 83.728 390.017 85.069 387.849 85.905H387.848C387.009 86.229 386.366 86.477 386.142 86.558C376.506 90.076 367.859 91.314 357.608 89.442C347.449 87.586 339.551 81.01 334.702 71.464C330.487 63.167 329.008 53.24 330.651 45.542C332.638 36.238 336.711 29.022 342.266 23.878C346.614 19.852 351.685 17.333 356.027 16.577ZM365.92 23.643C366.712 23.488 367.481 24.004 367.636 24.797C367.791 25.59 367.275 26.359 366.482 26.514C354.627 28.836 345.093 37.89 342.328 49.867C341.392 53.921 341.675 57.217 342.594 58.474L342.715 58.632L342.725 58.654L342.742 58.641C343.071 58.344 343.455 57.586 343.754 56.41L343.816 56.152C346.66 43.834 356.051 34.299 368.046 31.097C368.827 30.889 369.629 31.352 369.837 32.133C370.045 32.913 369.581 33.715 368.801 33.923C357.994 36.808 349.503 45.317 346.778 56.343L346.666 56.81C345.663 61.155 342.784 63.229 340.451 60.479C338.744 58.467 338.326 54.199 339.478 49.209C342.505 36.098 352.942 26.184 365.92 23.643ZM383.511 39.698C383.454 38.892 382.754 38.285 381.948 38.343C367.712 39.358 355.227 48.605 350.26 62.252C348.375 67.431 348.263 72.036 349.806 74.384C351.876 77.535 355.132 75.748 356.756 71.287L356.926 70.829C361.319 59.28 371.613 51.213 383.663 49.531C384.463 49.42 385.021 48.681 384.909 47.88C384.798 47.08 384.059 46.522 383.259 46.634C369.988 48.486 358.673 57.465 354.007 70.287L353.904 70.561C353.385 71.895 352.817 72.7 352.386 72.936L352.367 72.949C352.364 72.951 352.361 72.953 352.359 72.955C352.356 72.958 352.353 72.96 352.353 72.96C352.35 72.96 352.349 72.955 352.344 72.946C352.335 72.924 352.315 72.875 352.251 72.778L352.174 72.651C351.325 71.146 351.454 67.525 353.009 63.253C357.578 50.699 369.061 42.195 382.156 41.261C382.962 41.203 383.569 40.503 383.511 39.698ZM389.882 53.917C390.688 53.859 391.387 54.466 391.445 55.272C391.502 56.078 390.896 56.777 390.09 56.835C380.909 57.49 372.858 63.453 369.654 72.254C368.705 74.863 368.528 77.094 368.868 78.223L368.909 78.349L368.974 78.256C369.138 78.008 369.321 77.652 369.502 77.191L369.579 76.987C372.963 67.69 381.166 61.18 390.789 59.837C391.589 59.725 392.328 60.283 392.44 61.083C392.551 61.883 391.993 62.622 391.193 62.734C382.776 63.909 375.581 69.527 372.482 77.576L372.328 77.987C371.073 81.435 368.359 82.924 366.625 80.284C365.436 78.475 365.52 75.061 366.905 71.253C370.507 61.358 379.56 54.653 389.882 53.917ZM397.591 65.702C397.533 64.896 396.834 64.29 396.028 64.347C389.115 64.84 383.052 69.33 380.64 75.958C379.689 78.57 379.631 80.948 380.511 82.287C381.953 84.482 384.194 83.252 385.128 80.687L385.255 80.35C387.22 75.332 391.723 71.833 396.988 71.098C397.788 70.986 398.346 70.247 398.234 69.447C398.123 68.647 397.383 68.089 396.583 68.201L396.213 68.256C390.545 69.169 385.655 72.767 383.12 77.944L383.031 78.128L383.086 77.918C383.168 77.613 383.268 77.291 383.389 76.958C385.403 71.425 390.464 67.677 396.236 67.265C397.042 67.208 397.648 66.508 397.591 65.702Z" fill="white"/>
<path fill-rule="evenodd" clip-rule="evenodd" d="M389.882 53.918C390.688 53.86 391.387 54.467 391.445 55.273C391.502 56.079 390.896 56.778 390.09 56.836C380.909 57.491 372.858 63.454 369.654 72.255C368.705 74.864 368.528 77.095 368.868 78.224L368.909 78.35L368.974 78.257C369.138 78.009 369.321 77.653 369.502 77.192L369.579 76.988C372.962 67.691 381.166 61.181 390.789 59.838C391.589 59.726 392.328 60.284 392.44 61.084C392.551 61.884 391.993 62.623 391.193 62.735C382.776 63.91 375.581 69.528 372.482 77.577L372.328 77.988C371.073 81.436 368.359 82.925 366.625 80.285C365.436 78.476 365.519 75.062 366.905 71.254C370.507 61.359 379.56 54.654 389.882 53.918Z" fill="white"/>
<path fill-rule="evenodd" clip-rule="evenodd" d="M197.306 184.611C198.266 183.436 199.51 183.611 201.087 184.567L201.492 184.823L202.625 185.574C202.942 185.777 203.079 185.847 203.264 185.921C203.693 186.091 203.902 186.578 203.731 187.006C203.56 187.435 203.074 187.645 202.645 187.474L202.493 187.411C202.203 187.287 201.984 187.158 201.397 186.768L200.584 186.226C200.45 186.139 200.334 186.066 200.22 185.996C199.277 185.425 198.849 185.364 198.6 185.668C198.444 185.86 198.482 186.268 198.793 187.106L199.134 187.984C199.812 189.784 199.816 190.588 198.608 191.275C197.569 191.866 197.036 191.59 195.543 190.127L195.181 189.768C194.224 188.813 193.723 188.481 193.4 188.549C193.293 188.572 193.168 188.648 193.015 188.811C192.836 189.002 192.785 189.613 192.895 190.696L193.064 192.111C193.26 193.84 193.181 194.288 192.467 194.766C191.484 195.424 190.176 194.68 187.751 192.503C187.408 192.194 187.379 191.666 187.688 191.322C187.996 190.979 188.525 190.951 188.868 191.259C189.905 192.19 190.687 192.796 191.234 193.107L191.356 193.174L191.459 193.225L191.461 193.12L191.455 192.87C191.444 192.664 191.418 192.416 191.367 191.995L191.261 191.127C191.057 189.366 191.121 188.387 191.796 187.667C192.171 187.268 192.592 187.012 193.054 186.914C194.128 186.687 194.891 187.146 196.158 188.384L196.797 189.013C197.486 189.676 197.742 189.845 197.782 189.822C197.939 189.733 197.915 189.456 197.492 188.369L197.306 187.898C196.716 186.38 196.603 185.471 197.306 184.611Z" fill="white"/>
<path fill-rule="evenodd" clip-rule="evenodd" d="M288.554 48.567L287.76 48.638C287.042 48.707 286.516 49.346 286.586 50.064C286.628 50.498 286.877 50.861 287.227 51.066L287.089 51.164C286.5 51.58 286.36 52.395 286.777 52.984C287.193 53.573 288.008 53.713 288.597 53.297L289.939 52.346C289.9 52.654 289.866 52.971 289.838 53.3L289.707 54.941C289.647 55.66 290.181 56.291 290.9 56.35C291.619 56.41 292.25 55.876 292.31 55.157L292.471 53.193C292.513 52.773 292.565 52.379 292.628 52.006C293.087 52.876 293.178 53.547 293.081 54.18L293.043 54.396L293.027 54.529C292.978 55.189 293.437 55.791 294.103 55.909C294.813 56.034 295.49 55.56 295.615 54.85L295.66 54.597C295.799 53.715 295.735 52.828 295.378 51.843C295.565 51.977 295.726 52.127 295.869 52.29L296.01 52.457L296.101 52.555C296.575 53.017 297.332 53.053 297.85 52.618C298.402 52.155 298.474 51.331 298.011 50.778L297.845 50.582C297.787 50.514 297.727 50.449 297.665 50.384C298.347 50.424 298.952 49.927 299.036 49.24C299.124 48.524 298.615 47.872 297.899 47.784C296.668 47.633 295.591 47.599 294.601 47.688C294.956 47.27 295.368 46.845 295.847 46.398C296.375 45.906 296.404 45.08 295.912 44.552C295.42 44.025 294.594 43.996 294.066 44.487C293.181 45.312 292.476 46.097 291.915 46.892C291.698 46.662 291.47 46.426 291.231 46.184L290.666 45.621C290.151 45.116 289.324 45.123 288.819 45.638C288.314 46.153 288.321 46.98 288.836 47.485C289.194 47.836 289.523 48.168 289.827 48.482C289.422 48.503 288.998 48.531 288.554 48.567Z" fill="white"/>
<path fill-rule="evenodd" clip-rule="evenodd" d="M238.223 57.615C237.91 57.293 237.402 57.302 237.089 57.635C236.777 57.967 236.777 58.497 237.091 58.819C237.388 59.123 237.654 59.406 237.891 59.669C237.389 59.882 236.885 60.158 236.345 60.498L235.526 61.023C235.166 61.252 235.088 61.711 235.351 62.047C235.614 62.383 236.118 62.47 236.478 62.241L237.459 61.614C237.972 61.3 238.435 61.063 238.899 60.896C239.605 61.877 239.753 62.507 239.663 63.09L239.639 63.229L239.628 63.314C239.595 63.737 239.873 64.121 240.282 64.193C240.717 64.27 241.135 63.963 241.216 63.507L241.244 63.344C241.378 62.498 241.235 61.645 240.628 60.592C241.04 60.586 241.488 60.616 241.996 60.681C242.439 60.738 242.837 60.457 242.884 60.054C242.931 59.652 242.611 59.279 242.168 59.222C241.197 59.098 240.383 59.084 239.638 59.185C239.332 58.808 238.976 58.406 238.567 57.972L238.223 57.615Z" fill="#E7EAEE"/>
<path fill-rule="evenodd" clip-rule="evenodd" d="M69.922 275.338L70.8221 277.338L72.874 277.927C72.985 277.959 73.0491 278.074 73.0171 278.185C73.0071 278.219 72.9891 278.251 72.9641 278.276L71.4051 279.827L71.4921 282.06C71.4971 282.176 71.4071 282.273 71.2921 282.277C71.2531 282.279 71.214 282.27 71.18 282.25L69.415 281.245C69.36 281.214 69.2941 281.209 69.2351 281.233L67.3481 281.982C67.2401 282.025 67.1191 281.972 67.0761 281.865C67.0621 281.829 67.0581 281.789 67.0651 281.751L67.4621 279.552L66.1341 277.798C66.0651 277.706 66.0831 277.575 66.1751 277.505C66.2031 277.484 66.2371 277.47 66.2721 277.465L68.385 277.168L69.555 275.312C69.616 275.215 69.7461 275.186 69.8431 275.247C69.8781 275.269 69.905 275.301 69.922 275.338Z" fill="white"/>
<path fill-rule="evenodd" clip-rule="evenodd" d="M81.922 164.338L82.8221 166.338L84.874 166.927C84.985 166.959 85.0491 167.074 85.0171 167.185C85.0071 167.219 84.9891 167.251 84.9641 167.276L83.4051 168.827L83.4921 171.06C83.4971 171.176 83.4071 171.273 83.2921 171.277C83.2531 171.279 83.214 171.27 83.18 171.25L81.415 170.245C81.36 170.214 81.2941 170.209 81.2351 170.233L79.3481 170.982C79.2401 171.025 79.1191 170.972 79.0761 170.865C79.0621 170.829 79.0581 170.789 79.0651 170.751L79.4621 168.552L78.1341 166.798C78.0651 166.706 78.0831 166.575 78.1751 166.505C78.2031 166.484 78.2371 166.47 78.2721 166.465L80.385 166.168L81.555 164.312C81.616 164.215 81.7461 164.186 81.8431 164.247C81.8781 164.269 81.905 164.301 81.922 164.338Z" fill="white"/>
</svg>
